<svg width="12" height="12" viewBox="0 0 12 12" fill="none" xmlns="http://www.w3.org/2000/svg">
<path d="M11.3514 11.6757H0.648665C0.562649 11.6757 0.480156 11.6415 0.419333 11.5807C0.358511 11.5199 0.324341 11.4374 0.324341 11.3514V10.7027C0.324341 10.6167 0.358511 10.5342 0.419333 10.4734C0.480156 10.4126 0.562649 10.3784 0.648665 10.3784H11.3514C11.4374 10.3784 11.5199 10.4126 11.5807 10.4734C11.6415 10.5342 11.6757 10.6167 11.6757 10.7027V11.3514C11.6757 11.4374 11.6415 11.5199 11.5807 11.5807C11.5199 11.6415 11.4374 11.6757 11.3514 11.6757ZM0.648665 10.7027V11.3514H11.3514V10.7027H0.648665Z" fill="#560BAD"/>
<path d="M10.8649 10.7027H1.13515C1.09215 10.7027 1.0509 10.6856 1.02049 10.6552C0.990077 10.6248 0.972992 10.5835 0.972992 10.5405V7.94595C0.973335 7.645 1.09304 7.35648 1.30584 7.14367C1.51865 6.93087 1.80718 6.81116 2.10813 6.81082H9.89191C10.1929 6.81116 10.4814 6.93087 10.6942 7.14367C10.907 7.35648 11.0267 7.645 11.027 7.94595V10.5405C11.027 10.5835 11.01 10.6248 10.9796 10.6552C10.9491 10.6856 10.9079 10.7027 10.8649 10.7027ZM1.29732 10.3784H10.7027V7.94595C10.7025 7.73099 10.617 7.52491 10.465 7.37291C10.313 7.22091 10.1069 7.1354 9.89191 7.13514H2.10813C1.89317 7.1354 1.68708 7.22091 1.53508 7.37291C1.38308 7.52491 1.29757 7.73099 1.29732 7.94595V10.3784Z" fill="#560BAD"/>
<path d="M9.24326 9.48649C8.90405 9.48888 8.57706 9.35993 8.33078 9.12665C8.14099 8.94152 7.88636 8.83789 7.62124 8.83789C7.35611 8.83789 7.10148 8.94152 6.9117 9.12665C6.66426 9.35786 6.33826 9.48648 5.99961 9.48648C5.66097 9.48648 5.33496 9.35786 5.08753 9.12665C4.8978 8.94149 4.64319 8.83784 4.37807 8.83784C4.11296 8.83784 3.85835 8.94149 3.66861 9.12665C3.4213 9.3579 3.09536 9.48655 2.75678 9.48655C2.41819 9.48655 2.09225 9.3579 1.84494 9.12665C1.75145 9.03419 1.64062 8.96108 1.51883 8.91152C1.39703 8.86196 1.26665 8.83692 1.13515 8.83784C1.09215 8.83784 1.0509 8.82076 1.02049 8.79035C0.990077 8.75993 0.972992 8.71869 0.972992 8.67568C0.972992 8.63267 0.990077 8.59142 1.02049 8.56101C1.0509 8.5306 1.09215 8.51352 1.13515 8.51352C1.47413 8.51113 1.80087 8.64009 2.04683 8.87336C2.23646 9.05848 2.49096 9.16211 2.75597 9.16211C3.02097 9.16211 3.27547 9.05848 3.4651 8.87336C3.71254 8.6421 4.03858 8.51346 4.37726 8.51346C4.71594 8.51346 5.04199 8.6421 5.28942 8.87336C5.47913 9.05851 5.73372 9.16216 5.9988 9.16216C6.26389 9.16216 6.51847 9.05851 6.70818 8.87336C6.95567 8.64212 7.28173 8.5135 7.62042 8.5135C7.95912 8.5135 8.28518 8.64212 8.53267 8.87336C8.72259 9.05855 8.97735 9.1622 9.24261 9.1622C9.50788 9.1622 9.76264 9.05855 9.95256 8.87336C10.1987 8.64002 10.5257 8.51106 10.8649 8.51352C10.9079 8.51352 10.9491 8.5306 10.9796 8.56101C11.01 8.59142 11.027 8.63267 11.027 8.67568C11.027 8.71869 11.01 8.75993 10.9796 8.79035C10.9491 8.82076 10.9079 8.83784 10.8649 8.83784C10.7334 8.83699 10.603 8.86206 10.4813 8.91162C10.3595 8.96117 10.2486 9.03424 10.1551 9.12665C9.90898 9.35977 9.58226 9.48871 9.24326 9.48649Z" fill="#560BAD"/>
<path d="M9.72975 7.13514H2.27029C2.22728 7.13514 2.18603 7.11806 2.15562 7.08765C2.12521 7.05723 2.10812 7.01599 2.10812 6.97298V4.54055C2.10838 4.32559 2.19389 4.1195 2.34589 3.9675C2.49789 3.8155 2.70397 3.72999 2.91893 3.72974H9.0811C9.29606 3.72999 9.50214 3.8155 9.65414 3.9675C9.80614 4.1195 9.89165 4.32559 9.89191 4.54055V6.97298C9.89191 7.01599 9.87482 7.05723 9.84441 7.08765C9.814 7.11806 9.77275 7.13514 9.72975 7.13514ZM2.43245 6.81082H9.56758V4.54055C9.56758 4.41152 9.51633 4.28778 9.42509 4.19655C9.33386 4.10532 9.21012 4.05406 9.0811 4.05406H2.91893C2.78991 4.05406 2.66617 4.10532 2.57494 4.19655C2.4837 4.28778 2.43245 4.41152 2.43245 4.54055V6.81082Z" fill="#560BAD"/>
<path d="M8.48596 6.00537C8.21724 6.00785 7.95803 5.90601 7.76288 5.72126C7.62408 5.58468 7.43715 5.50814 7.24242 5.50814C7.04769 5.50814 6.86076 5.58468 6.72196 5.72126C6.52553 5.90389 6.26726 6.00541 5.99904 6.00541C5.73083 6.00541 5.47255 5.90389 5.27612 5.72126C5.1374 5.58471 4.95056 5.50818 4.75591 5.50818C4.56126 5.50818 4.37441 5.58471 4.23569 5.72126C4.03933 5.90391 3.78111 6.00544 3.51293 6.00544C3.24476 6.00544 2.98654 5.90391 2.79018 5.72126C2.72201 5.653 2.64093 5.59901 2.55167 5.56242C2.4624 5.52584 2.36675 5.5074 2.27029 5.50818C2.22728 5.50818 2.18603 5.49109 2.15562 5.46068C2.12521 5.43027 2.10812 5.38902 2.10812 5.34602C2.10812 5.30301 2.12521 5.26176 2.15562 5.23135C2.18603 5.20094 2.22728 5.18385 2.27029 5.18385C2.53884 5.1815 2.79785 5.28333 2.99288 5.46796C3.13155 5.60449 3.31834 5.68102 3.51293 5.68102C3.70753 5.68102 3.89432 5.60449 4.03299 5.46796C4.22942 5.28533 4.48769 5.18381 4.75591 5.18381C5.02412 5.18381 5.2824 5.28533 5.47883 5.46796C5.61755 5.60451 5.80439 5.68104 5.99904 5.68104C6.19369 5.68104 6.38054 5.60451 6.51926 5.46796C6.71574 5.28531 6.97407 5.18378 7.24234 5.18378C7.51061 5.18378 7.76894 5.28531 7.96542 5.46796C8.10428 5.60456 8.29126 5.68112 8.48604 5.68112C8.68083 5.68112 8.86781 5.60456 9.00666 5.46796C9.20182 5.28322 9.46103 5.18137 9.72975 5.18385C9.77275 5.18385 9.814 5.20094 9.84441 5.23135C9.87482 5.26176 9.89191 5.30301 9.89191 5.34602C9.89191 5.38902 9.87482 5.43027 9.84441 5.46068C9.814 5.49109 9.77275 5.50818 9.72975 5.50818C9.63316 5.5074 9.53738 5.52584 9.44799 5.56242C9.3586 5.599 9.27737 5.65299 9.20904 5.72126C9.01389 5.90601 8.75468 6.00785 8.48596 6.00537Z" fill="#560BAD"/>
<path d="M7.94596 4.05405H6.97298C6.92998 4.05405 6.88873 4.03697 6.85832 4.00656C6.82791 3.97615 6.81082 3.9349 6.81082 3.89189V1.94595C6.81082 1.90294 6.82791 1.86169 6.85832 1.83128C6.88873 1.80087 6.92998 1.78378 6.97298 1.78378H7.94596C7.98897 1.78378 8.03022 1.80087 8.06063 1.83128C8.09104 1.86169 8.10812 1.90294 8.10812 1.94595V3.89189C8.10812 3.9349 8.09104 3.97615 8.06063 4.00656C8.03022 4.03697 7.98897 4.05405 7.94596 4.05405ZM7.13515 3.72973H7.7838V2.10811H7.13515V3.72973Z" fill="#560BAD"/>
<path d="M5.02701 4.05405H4.05404C4.01103 4.05405 3.96978 4.03697 3.93937 4.00656C3.90896 3.97615 3.89188 3.9349 3.89188 3.89189V1.94595C3.89188 1.90294 3.90896 1.86169 3.93937 1.83128C3.96978 1.80087 4.01103 1.78378 4.05404 1.78378H5.02701C5.07002 1.78378 5.11127 1.80087 5.14168 1.83128C5.17209 1.86169 5.18918 1.90294 5.18918 1.94595V3.89189C5.18918 3.9349 5.17209 3.97615 5.14168 4.00656C5.11127 4.03697 5.07002 4.05405 5.02701 4.05405ZM4.2162 3.72973H4.86485V2.10811H4.2162V3.72973Z" fill="#560BAD"/>
<path d="M7.45942 1.68923C7.33039 1.68923 7.20665 1.63798 7.11542 1.54674C7.02419 1.45551 6.97293 1.33177 6.97293 1.20274C6.97293 1.00037 7.21617 0.575826 7.32061 0.402637C7.33611 0.380127 7.35685 0.361722 7.38105 0.349008C7.40524 0.336294 7.43216 0.329651 7.4595 0.329651C7.48683 0.329651 7.51375 0.336294 7.53795 0.349008C7.56214 0.361722 7.58288 0.380127 7.59839 0.402637C7.70266 0.575826 7.9459 1.0002 7.9459 1.20274C7.9459 1.33177 7.89465 1.45551 7.80341 1.54674C7.71218 1.63798 7.58844 1.68923 7.45942 1.68923ZM7.45942 0.816799C7.38766 0.937328 7.33308 1.06728 7.29725 1.20291C7.29725 1.24591 7.31434 1.28716 7.34475 1.31757C7.37516 1.34798 7.41641 1.36507 7.45942 1.36507C7.50242 1.36507 7.54367 1.34798 7.57408 1.31757C7.60449 1.28716 7.62158 1.24591 7.62158 1.20291C7.58578 1.06722 7.5312 0.937209 7.45942 0.816637V0.816799Z" fill="#560BAD"/>
<path d="M7.4595 2.10808C7.41649 2.10808 7.37524 2.091 7.34483 2.06059C7.31442 2.03018 7.29733 1.98893 7.29733 1.94592V1.52706C7.29733 1.48405 7.31442 1.44281 7.34483 1.41239C7.37524 1.38198 7.41649 1.3649 7.4595 1.3649C7.50251 1.3649 7.54376 1.38198 7.57417 1.41239C7.60458 1.44281 7.62167 1.48405 7.62167 1.52706V1.94592C7.62167 1.98893 7.60458 2.03018 7.57417 2.06059C7.54376 2.091 7.50251 2.10808 7.4595 2.10808Z" fill="#560BAD"/>
<path d="M4.54056 1.68923C4.41154 1.68923 4.2878 1.63798 4.19657 1.54674C4.10533 1.45551 4.05408 1.33177 4.05408 1.20274C4.05408 1.00037 4.29732 0.575826 4.40175 0.402637C4.41726 0.380127 4.438 0.361722 4.46219 0.349008C4.48639 0.336294 4.51331 0.329651 4.54064 0.329651C4.56798 0.329651 4.5949 0.336294 4.61909 0.349008C4.64329 0.361722 4.66403 0.380127 4.67953 0.402637C4.7838 0.575826 5.02705 1.0002 5.02705 1.20274C5.02705 1.33177 4.97579 1.45551 4.88456 1.54674C4.79333 1.63798 4.66959 1.68923 4.54056 1.68923ZM4.54056 0.816799C4.4688 0.937328 4.41422 1.06728 4.3784 1.20291C4.3784 1.24591 4.39549 1.28716 4.4259 1.31757C4.45631 1.34798 4.49755 1.36507 4.54056 1.36507C4.58357 1.36507 4.62482 1.34798 4.65523 1.31757C4.68564 1.28716 4.70272 1.24591 4.70272 1.20291C4.66693 1.06722 4.61235 0.937209 4.54056 0.816637V0.816799Z" fill="#560BAD"/>
<path d="M4.54055 2.10808C4.49754 2.10808 4.45629 2.091 4.42588 2.06059C4.39547 2.03018 4.37839 1.98893 4.37839 1.94592V1.52706C4.37839 1.48405 4.39547 1.44281 4.42588 1.41239C4.45629 1.38198 4.49754 1.3649 4.54055 1.3649C4.58355 1.3649 4.6248 1.38198 4.65521 1.41239C4.68562 1.44281 4.70271 1.48405 4.70271 1.52706V1.94592C4.70271 1.98893 4.68562 2.03018 4.65521 2.06059C4.6248 2.091 4.58355 2.10808 4.54055 2.10808Z" fill="#560BAD"/>
</svg>
