<svg width="86" height="86" viewBox="0 0 86 86" fill="none" xmlns="http://www.w3.org/2000/svg">
<path d="M65.019 13.595L61.3066 14.7491L60.1525 18.4621C59.8658 19.3847 59.0804 20.0638 58.1264 20.2153C57.9938 20.2363 57.8606 20.2468 57.7287 20.2468C56.9138 20.2468 56.1376 19.8531 55.658 19.174L53.4127 15.9997L49.5252 16.0496H49.4924C48.5397 16.0496 47.6657 15.5148 47.232 14.6645C46.7937 13.8036 46.8816 12.7689 47.4597 11.9953L49.785 8.87874L48.5364 5.19655C48.226 4.28256 48.4623 3.27081 49.1453 2.58778C49.8277 1.90475 50.8394 1.6692 51.754 1.97955L55.4362 3.22816L58.5515 0.902189C59.3258 0.324797 60.3611 0.236876 61.2213 0.675169C62.0815 1.11346 62.6182 2.00252 62.6064 2.96834L62.5565 6.8559L65.7309 9.10116C66.5195 9.65887 66.9231 10.6155 66.7722 11.5695C66.6206 12.5235 65.9415 13.3089 65.019 13.595ZM58.5378 10.229C57.856 9.74679 57.4551 8.9601 57.4656 8.12485L57.467 8.04414L57.4013 8.09204C56.7321 8.59201 55.8601 8.7298 55.0695 8.4621L54.9927 8.43585L55.0183 8.51262C55.2866 9.30391 55.1489 10.1759 54.6489 10.8452L54.6003 10.9101L54.6817 10.9088C54.6922 10.9088 54.7033 10.9088 54.7145 10.9088C55.5366 10.9088 56.3095 11.3084 56.7852 11.9809L56.8325 12.0472L56.8561 11.9698C57.1041 11.1726 57.7287 10.5479 58.5259 10.3006L58.604 10.2763L58.5378 10.229Z" fill="#FAFAFA"/>
<path d="M49.1395 18.8066C49.7333 17.537 51.2463 16.9852 52.5153 17.579C53.7842 18.1735 54.3334 19.6786 53.7396 20.9476C53.548 21.3662 49.1684 31.2665 59.0254 37.4807C60.2104 38.228 60.5653 39.7942 59.818 40.9798C59.3357 41.7448 58.5116 42.1641 57.6698 42.1641C57.2073 42.1641 56.7394 42.0375 56.3189 41.7731C49.1861 37.276 47.6055 31.2409 47.5359 26.9702C47.4624 22.4416 49.0706 18.9523 49.1395 18.8066Z" fill="#FAFAFA"/>
<path d="M3.63763 55.0262L2.38902 51.344C2.07867 50.4293 2.31488 49.4182 2.99725 48.7352C3.68028 48.0522 4.69137 47.8166 5.60601 48.1263L9.28821 49.3749L12.4048 47.0496C13.1784 46.4722 14.2138 46.3836 15.0739 46.8226C15.9341 47.2609 16.4715 48.1499 16.459 49.1151L16.4092 53.0033L19.5835 55.2479C20.3722 55.8056 20.7757 56.7629 20.6248 57.7163C20.4732 58.6703 19.7941 59.4557 18.8723 59.7424L15.1592 60.8965L14.0051 64.6095C13.7184 65.5321 12.933 66.2111 11.979 66.3627C11.8464 66.3837 11.7133 66.3936 11.582 66.3936C10.7665 66.3936 9.99092 65.9999 9.51063 65.3214L7.26602 62.1471L3.3778 62.1963C2.41002 62.2088 1.52358 61.6721 1.08463 60.8119C0.646341 59.951 0.734262 58.9163 1.31231 58.1421L3.63763 55.0262ZM8.53431 57.0562C9.37219 57.0451 10.1563 57.4466 10.6385 58.1283L10.6851 58.1946L10.7094 58.1172C10.9574 57.32 11.5814 56.6953 12.3792 56.4473L12.4566 56.423L12.3904 56.3765C11.7087 55.8942 11.3078 55.1075 11.3183 54.2723L11.3189 54.1916L11.254 54.2401C10.5847 54.7394 9.71272 54.8772 8.92209 54.6095L8.84466 54.5833L8.87091 54.66C9.13927 55.4513 9.00148 56.3233 8.50151 56.9926L8.45295 57.0575L8.53431 57.0562Z" fill="#FAFAFA"/>
<path d="M21.3581 53.3294C20.0912 53.9166 18.586 53.3694 17.9935 52.1031C17.3991 50.8341 17.9463 49.3237 19.2159 48.7299C19.3622 48.661 22.8594 47.0515 27.3794 47.127C31.6502 47.1959 37.6853 48.7758 42.1824 55.9092C42.9297 57.0949 42.5741 58.6617 41.3891 59.4084C40.9692 59.6734 40.5007 59.8001 40.0388 59.8001C39.1963 59.8001 38.3722 59.3808 37.89 58.6158C31.6823 48.7693 21.7958 53.1299 21.3581 53.3294Z" fill="#FAFAFA"/>
<path d="M58.381 27.4387C58.381 26.6815 58.7189 25.9637 59.3035 25.4821L65.244 20.5802C66.1817 19.8066 67.5359 19.8066 68.4735 20.5802L74.4141 25.4821C74.9987 25.9637 75.3366 26.6815 75.3366 27.4387C75.3366 28.1958 74.9987 28.9136 74.4141 29.3959L68.4735 34.2972C68.0044 34.6843 67.4316 34.8779 66.8588 34.8779C66.286 34.8779 65.7125 34.6843 65.244 34.2972L59.3035 29.3959C58.7189 28.9136 58.381 28.1965 58.381 27.4387ZM66.8588 29.0514L68.8134 27.4387L66.8588 25.8266L64.9042 27.4387L66.8588 29.0514Z" fill="#FAFAFA"/>
<path d="M0.922714 33.9435L6.8633 29.0415C7.8009 28.2679 9.15515 28.2679 10.0928 29.0415L16.034 33.9435C16.618 34.4251 16.9565 35.1429 16.9565 35.9001C16.9565 36.6572 16.618 37.375 16.034 37.8573L10.0928 42.7586C9.62428 43.1457 9.05148 43.3393 8.47803 43.3393C7.90523 43.3393 7.33243 43.1457 6.8633 42.7586L0.922714 37.8573C0.338104 37.375 0.000198364 36.6572 0.000198364 35.9001C0.000198364 35.1429 0.338104 34.4251 0.922714 33.9435ZM8.47803 37.5128L10.4326 35.9001L8.47803 34.2873L6.52342 35.9001L8.47803 37.5128Z" fill="#FAFAFA"/>
<path d="M45.9362 44.0465C45.6101 42.668 44.8043 41.2823 43.6673 40.1459C43.6673 40.1452 43.6673 40.1452 43.6666 40.1452C43.1889 39.6675 42.6024 39.1754 41.9928 38.7267C41.6352 40.1249 40.9371 41.3781 39.9208 42.3944C38.5416 43.7742 36.5581 44.6771 34.6383 44.6771C33.2801 44.6771 31.9528 44.2243 30.8964 43.168C28.348 40.6196 29.3138 36.4991 31.6693 34.1436C32.7191 33.0944 34.0209 32.3839 35.4749 32.0381C35.2721 31.7829 35.0523 31.5375 34.82 31.3013C34.3667 30.863 33.8299 30.4174 33.2729 30.0067C32.9153 31.4056 32.2178 32.6588 31.2015 33.6751C30.0926 34.784 28.5947 35.574 27.0922 35.843C26.7064 35.9119 26.3245 35.946 25.9512 35.946C24.4886 35.946 23.1534 35.425 22.1771 34.448C19.6287 31.9003 20.5939 27.7798 22.95 25.4237C23.9992 24.3745 25.3009 23.6646 26.7549 23.3182C26.5364 23.0432 26.2996 22.7782 26.047 22.5249C26.0463 22.5249 26.0463 22.5249 26.0463 22.5242C25.5686 22.0466 24.9807 21.5545 24.3712 21.105C24.0143 22.5039 23.3161 23.7571 22.2992 24.7734C21.1903 25.8823 19.693 26.6723 18.1905 26.9406C17.8047 27.0102 17.4235 27.0436 17.0495 27.0436C15.587 27.0436 14.2517 26.5227 13.2754 25.5464C12.0498 24.3207 11.5413 22.5295 11.8812 20.6307C12.1495 19.1288 12.9395 17.6308 14.0483 16.522C15.0975 15.4728 16.3999 14.7629 17.8532 14.4165C17.6347 14.1416 17.3979 13.8765 17.1453 13.6232C17.1446 13.6232 17.1446 13.6226 17.1446 13.6226C16.0082 12.4861 14.6231 11.6804 13.2439 11.3543C11.7224 10.9941 10.3871 11.25 9.58208 12.0551C9.0867 12.5504 8.43714 12.7985 7.78823 12.7985C7.13866 12.7985 6.48909 12.5511 5.99437 12.0551C5.00296 11.0643 5.00296 9.45812 5.99437 8.46736C8.07167 6.39006 11.1397 5.64208 14.4118 6.41565C16.7273 6.96352 18.9135 8.21475 20.733 10.0342C20.733 10.0349 20.7336 10.0349 20.7336 10.0355C22.1856 11.4875 23.2755 13.1731 23.9349 14.9716C26.1506 15.9315 28.4438 17.745 29.6347 18.9359C29.6347 18.9365 29.6353 18.9372 29.6353 18.9372C31.0873 20.3892 32.1778 22.0748 32.8366 23.8732C34.9053 24.7702 37.0417 26.4105 38.285 27.5935C38.308 27.6145 38.3323 27.6335 38.3546 27.6558C38.3835 27.6847 38.4117 27.7149 38.4405 27.7437C38.472 27.7752 38.5062 27.8074 38.5363 27.8376C38.5573 27.8592 38.5757 27.8822 38.5961 27.9038C39.928 29.2988 40.9345 30.8958 41.5565 32.5932C43.7709 33.5524 46.0641 35.3653 47.2543 36.5562C47.255 36.5568 47.2556 36.5568 47.2556 36.5575C49.0751 38.3769 50.3263 40.5625 50.8748 42.8786V42.8793C51.6484 46.1507 50.9004 49.2188 48.8231 51.2961C48.3277 51.7915 47.6782 52.0395 47.0293 52.0395C46.3797 52.0395 45.7301 51.7915 45.2354 51.2961C44.2447 50.3053 44.2447 48.6991 45.2354 47.7084C46.0405 46.9027 46.2964 45.5681 45.9368 44.0465H45.9362ZM17.6361 20.1103C16.9589 20.7875 16.7765 21.6936 16.8671 21.9541C17.1276 22.0453 18.0337 21.8629 18.7114 21.1857C19.1878 20.7087 19.4719 20.0474 19.55 19.2718C18.7744 19.3492 18.1131 19.6333 17.6361 20.1103ZM26.5377 29.0114C25.8606 29.6891 25.6782 30.5953 25.7688 30.8557C26.0292 30.9469 26.9354 30.7645 27.6131 30.0868C28.0895 29.6104 28.3736 28.949 28.4517 28.1728C27.6761 28.2509 27.0147 28.535 26.5377 29.0114ZM35.2577 37.7313C34.5806 38.4091 34.3975 39.3152 34.4887 39.5757C34.7492 39.6669 35.6553 39.4838 36.3331 38.8067C36.8094 38.3303 37.0935 37.6683 37.1716 36.8928C36.3954 36.9709 35.734 37.255 35.2577 37.7313Z" fill="#FAFAFA"/>
<path d="M36.3095 15.8009C34.3287 15.8009 32.3478 15.047 30.8394 13.5386C27.8232 10.5224 27.8232 5.61453 30.8394 2.59831C33.8563 -0.417912 38.7641 -0.417912 41.7803 2.59831C44.7965 5.61453 44.7965 10.5224 41.7803 13.5386C40.2719 15.047 38.291 15.8009 36.3095 15.8009ZM38.192 6.18602C37.673 5.66768 36.9912 5.40785 36.3095 5.40785C35.6285 5.40785 34.9461 5.66768 34.4277 6.18602C33.3898 7.22401 33.3898 8.91288 34.4277 9.95088C35.4651 10.9882 37.154 10.9889 38.192 9.95088C39.2299 8.91288 39.2299 7.22401 38.192 6.18602Z" fill="#FAFAFA"/>
<path d="M33.3189 60.9792C36.3344 63.9954 36.3344 68.9033 33.3189 71.9195C31.8104 73.4279 29.8296 74.1818 27.8481 74.1818C25.8672 74.1818 23.8864 73.4279 22.3779 71.9195C19.3617 68.9033 19.3617 63.9954 22.3779 60.9792C25.3941 57.963 30.302 57.9623 33.3189 60.9792ZM25.9663 68.3318C27.0036 69.3691 28.6925 69.3691 29.7305 68.3318C30.7685 67.2938 30.7685 65.6049 29.7305 64.5669C28.6925 63.5289 27.0043 63.5289 25.9663 64.5669C25.463 65.0695 25.1862 65.7381 25.1862 66.4494C25.1862 67.1599 25.463 67.8285 25.9663 68.3318Z" fill="#FAFAFA"/>
<path d="M39.3958 63.6464L64.0558 38.9865C64.6541 38.3881 65.511 38.1276 66.3424 38.2916C67.1724 38.4563 67.8665 39.0239 68.192 39.8047L85.8044 82.0777C86.2001 83.0264 85.9836 84.1202 85.2566 84.8472C84.7717 85.3327 84.1228 85.5906 83.4627 85.5906C83.134 85.5906 82.8026 85.5263 82.487 85.3951L40.2147 67.782C39.4332 67.4565 38.8657 66.763 38.701 65.9323C38.537 65.1023 38.7975 64.2448 39.3958 63.6464Z" fill="#FAFAFA"/>
<path d="M64.0558 38.9865C64.6541 38.3881 65.511 38.1276 66.3424 38.2916C67.1724 38.4563 67.8665 39.0239 68.192 39.8047L85.8044 82.0777C86.2001 83.0264 85.9836 84.1202 85.2566 84.8472L51.7258 51.3164L64.0558 38.9865Z" fill="#FAFAFA"/>
<path d="M73.6969 53.0191L77.4513 62.0284L74.7428 82.1689L69.894 80.1486L73.4306 53.853C73.4712 53.5525 73.5651 53.273 73.6969 53.0191Z" fill="#FAFAFA"/>
<path d="M73.6969 53.0191L77.4513 62.0284L75.6712 75.2618L71.1584 70.749L73.4306 53.853C73.4712 53.5525 73.5651 53.273 73.6969 53.0191Z" fill="#FAFAFA"/>
<path d="M64.0558 38.9865C64.6542 38.3881 65.5111 38.1276 66.3424 38.2916C67.1724 38.4563 67.8666 39.0239 68.192 39.8047L68.8206 41.3144L63.9324 77.6646L59.0836 75.6443L64.0072 39.0357L64.0558 38.9865Z" fill="#FAFAFA"/>
<path d="M64.0558 38.9865C64.6542 38.3881 65.5111 38.1276 66.3424 38.2916C67.1724 38.4563 67.8666 39.0239 68.192 39.8046L68.8206 41.3144L65.6088 65.1994L61.0953 60.6859L64.0072 39.0357L64.0558 38.9865Z" fill="#FAFAFA"/>
<path d="M57.0398 46.0024L53.0971 73.1497L48.2615 71.1354L51.0408 52.0014L57.0398 46.0024Z" fill="#FAFAFA"/>
<path d="M57.0398 46.0024L55.6921 55.2827L51.7258 51.3164L57.0398 46.0024Z" fill="#FAFAFA"/>
</svg>
