<svg width="24" height="24" viewBox="0 0 24 24" fill="none" xmlns="http://www.w3.org/2000/svg">
<path d="M2.27034 19.2H2.40008L8.65952 17.8378C8.78144 17.8175 8.89442 17.761 8.98381 17.6757L19.5891 7.07032C20.3638 6.29727 20.7961 5.24581 20.7891 4.15145C20.7905 3.04858 20.3597 1.98911 19.5891 1.20011C18.8161 0.425386 17.7646 -0.00685829 16.6702 0.000156436C15.5688 -0.00958969 14.5124 0.436435 13.7513 1.23258L3.1784 11.8379C3.08516 11.9129 3.01719 12.0148 2.98379 12.1297L1.62169 18.3892C1.58451 18.6139 1.65677 18.8428 1.81631 19.0054C1.93605 19.1276 2.09925 19.1975 2.27034 19.2ZM16.6702 1.29745C18.2285 1.29732 19.4919 2.56053 19.492 4.11886C19.492 4.12972 19.4919 4.14059 19.4918 4.15145C19.5024 4.89383 19.2095 5.6084 18.681 6.12979L14.6919 2.10818C15.2174 1.58592 15.9293 1.29416 16.6702 1.29745ZM13.7837 3.04877L17.7729 7.03792L8.52971 16.2486L4.54057 12.2919L13.7837 3.04877ZM4.02166 13.5892L7.23242 16.8L3.11353 17.7081L4.02166 13.5892Z" fill="white"/>
<path d="M22.8648 22.7027H1.13519C0.776939 22.7027 0.486542 22.9931 0.486542 23.3513C0.486542 23.7096 0.776939 24 1.13519 24H22.8648C23.223 24 23.5134 23.7096 23.5134 23.3513C23.5134 22.9931 23.223 22.7027 22.8648 22.7027Z" fill="white"/>
</svg>
