<svg width="20" height="20" viewBox="0 0 20 20" fill="none" xmlns="http://www.w3.org/2000/svg">
<g clip-path="url(#clip0_1102_25)">
<path d="M19.773 9.23489L11.6327 1.04102C11.6223 1.03047 11.6115 1.02024 11.6005 1.01032C10.7116 0.212229 9.36843 0.209378 8.47617 1.00371C8.46507 1.0136 8.45429 1.02379 8.44378 1.03426L0.229371 9.2325C-0.0760201 9.53735 -0.0765279 10.032 0.228277 10.3374C0.533121 10.6428 1.02777 10.6432 1.33312 10.3385L1.95312 9.71969V16.4652C1.95312 18.1883 3.355 19.5902 5.07812 19.5902H7.89062C8.3221 19.5902 8.67187 19.2404 8.67187 18.8089V12.4417H11.4062V18.8089C11.4062 19.2404 11.756 19.5902 12.1875 19.5902H14.9219C16.645 19.5902 18.0469 18.1883 18.0469 16.4652C18.0469 16.0337 17.6971 15.6839 17.2656 15.6839C16.8341 15.6839 16.4844 16.0337 16.4844 16.4652C16.4844 17.3267 15.7834 18.0277 14.9219 18.0277H12.9687V11.6605C12.9687 11.229 12.619 10.8792 12.1875 10.8792H7.89062C7.45914 10.8792 7.10937 11.229 7.10937 11.6605V18.0277H5.07812C4.21656 18.0277 3.51562 17.3267 3.51562 16.4652V8.18391C3.51562 8.1761 3.5155 8.16832 3.51527 8.16059L9.52914 2.1586C9.82183 1.91004 10.2511 1.91098 10.5427 2.16074L16.4844 8.1416V12.5589C16.4844 12.9904 16.8341 13.3402 17.2656 13.3402C17.6971 13.3402 18.0469 12.9904 18.0469 12.5589V9.71438L18.6645 10.3361C18.8172 10.4898 19.0179 10.5668 19.2187 10.5668C19.4178 10.5668 19.617 10.4911 19.7694 10.3397C20.0755 10.0356 20.0771 9.54098 19.773 9.23489Z" fill="#9D77C8"/>
</g>
<defs>
<clipPath id="clip0_1102_25">
<rect width="20" height="20" fill="white"/>
</clipPath>
</defs>
</svg>
